<svg width="41" height="40" viewBox="0 0 41 40" fill="none" xmlns="http://www.w3.org/2000/svg">
<circle cx="20.5" cy="20" r="20" fill="#0052FF"/>
<path fill-rule="evenodd" clip-rule="evenodd" d="M34.2706 22.9091C32.9548 29.2752 27.3166 34.0606 20.5606 34.0606C12.8286 34.0606 6.56061 27.7926 6.56061 20.0606C6.56061 12.3286 12.8286 6.06061 20.5606 6.06061C27.2305 6.06061 32.811 10.7249 34.2183 16.9697H27.744C26.546 14.1891 23.7806 12.2424 20.5606 12.2424C16.2427 12.2424 12.7424 15.7427 12.7424 20.0606C12.7424 24.3785 16.2427 27.8788 20.5606 27.8788C23.8734 27.8788 26.705 25.8184 27.8437 22.9091H34.2706ZM34.5606 20.0441C34.5606 20.0496 34.5606 20.0551 34.5606 20.0606C34.5606 20.0661 34.5606 20.0716 34.5606 20.0771V20.0441Z" fill="white"/>
</svg>
